<svg width="160" height="160" viewBox="0 0 160 160" fill="none" xmlns="http://www.w3.org/2000/svg">
<path opacity="0.8" d="M51.8641 100.196C70.6901 100.579 83.1161 108.241 77.6331 122.092C72.1511 135.941 65.4341 145.27 51.2861 143.288C37.0841 141.299 26.6721 133.26 25.5171 121.392C24.1641 107.486 35.4171 99.861 51.8641 100.196Z" fill="#FF004C"/>
<path d="M102.243 62.3289C93.1839 62.3289 85.8149 54.9599 85.8149 45.9009C85.8149 36.8419 93.1839 29.4729 102.243 29.4729C111.302 29.4729 118.671 36.8419 118.671 45.9009C118.671 54.9599 111.302 62.3289 102.243 62.3289ZM102.243 33.4739C95.3899 33.4739 89.8149 39.0489 89.8149 45.9019C89.8149 52.7549 95.3899 58.3299 102.243 58.3299C109.096 58.3299 114.671 52.7549 114.671 45.9019C114.671 39.0489 109.096 33.4739 102.243 33.4739Z" fill="#210080"/>
<path opacity="0.8" d="M44.5469 46.7068C43.8549 22.435 65.9396 7.70005 91.3419 28.2198C123.927 54.541 128.257 75.6268 87.9268 79.3068C63.3548 81.5492 45.2431 71.1251 44.5469 46.7068Z" fill="#7427F3"/>
<path opacity="0.8" d="M134.708 59.566C143.288 59.792 150.259 63.907 149.577 71.871C148.778 81.201 144.768 87.172 137.272 86.74C129.747 86.306 123.793 81.843 122.403 74.435C120.774 65.755 126.076 59.339 134.708 59.566Z" fill="#FF9000"/>
<path d="M74.664 39.233C73.841 38.497 72.577 38.565 71.84 39.387L42.083 72.565L29.877 57.78C29.175 56.929 27.915 56.809 27.062 57.511C26.21 58.214 26.09 59.475 26.793 60.326L40.479 76.903C40.849 77.352 41.398 77.617 41.98 77.63H42.021C42.588 77.63 43.13 77.389 43.51 76.965L65.64 52.291C67.798 56.281 68.942 60.736 68.942 65.328C68.942 80.474 56.619 92.798 41.471 92.798C26.323 92.798 14 80.475 14 65.329C14 50.183 26.323 37.858 41.471 37.858C45.635 37.858 49.633 38.765 53.356 40.554C54.35 41.032 55.545 40.615 56.025 39.617C56.504 38.622 56.085 37.427 55.088 36.948C50.821 34.897 46.239 33.857 41.471 33.857C24.118 33.858 10 47.976 10 65.329C10 82.682 24.118 96.799 41.471 96.799C58.824 96.799 72.942 82.682 72.942 65.329C72.942 59.588 71.383 54.035 68.452 49.156L74.819 42.057C75.556 41.235 75.486 39.971 74.664 39.233Z" fill="#210080"/>
<path d="M125.347 87.256C124.524 86.52 123.26 86.588 122.523 87.41L100.69 111.752L91.9491 101.162C91.2461 100.311 89.9861 100.19 89.1341 100.893C88.2821 101.596 88.1621 102.856 88.8651 103.708L99.0861 116.09C99.4561 116.539 100.005 116.804 100.587 116.817H100.628C101.195 116.817 101.737 116.576 102.117 116.152L118.158 98.268C119.513 101.007 120.229 104.021 120.229 107.123C120.229 118.157 111.252 127.134 100.218 127.134C89.1841 127.134 80.2071 118.157 80.2071 107.123C80.2071 96.089 89.1841 87.112 100.218 87.112C103.252 87.112 106.165 87.772 108.874 89.076C109.872 89.553 111.064 89.137 111.544 88.14C112.023 87.144 111.604 85.949 110.608 85.47C107.353 83.906 103.857 83.112 100.217 83.112C86.9781 83.112 76.2061 93.883 76.2061 107.123C76.2061 120.363 86.9771 131.134 100.217 131.134C113.457 131.134 124.228 120.363 124.228 107.123C124.228 102.868 123.112 98.745 120.999 95.101L125.502 90.08C126.239 89.258 126.169 87.994 125.347 87.256Z" fill="#210080"/>
<path d="M58.0919 130.578C57.5799 130.578 57.0689 130.383 56.6779 129.992L41.3089 114.623C40.5279 113.842 40.5279 112.576 41.3089 111.795C42.0899 111.014 43.3559 111.014 44.1369 111.795L59.5059 127.164C60.2869 127.945 60.2869 129.211 59.5059 129.992C59.1149 130.383 58.6039 130.578 58.0919 130.578Z" fill="#210080"/>
<path d="M42.7229 130.578C42.2109 130.578 41.6999 130.383 41.3089 129.992C40.5279 129.211 40.5279 127.945 41.3089 127.164L56.6779 111.795C57.4589 111.014 58.7249 111.014 59.5059 111.795C60.2869 112.576 60.2869 113.842 59.5059 114.623L44.1369 129.992C43.7459 130.383 43.2349 130.578 42.7229 130.578Z" fill="#210080"/>
</svg>
