<svg width="160" height="160" viewBox="0 0 160 160" fill="none" xmlns="http://www.w3.org/2000/svg">
<path opacity="0.8" d="M45.2889 106.243C55.6889 106.517 64.1389 111.505 63.3119 121.159C62.3429 132.468 57.4829 139.706 48.3959 139.182C39.2749 138.656 32.0579 133.246 30.3729 124.266C28.3989 113.745 34.8259 105.968 45.2889 106.243Z" fill="#FF9000"/>
<path d="M101.467 120.556C93.0401 120.556 86.1851 113.7 86.1851 105.273C86.1851 96.846 93.0401 89.99 101.467 89.99C109.894 89.99 116.75 96.846 116.75 105.273C116.75 113.7 109.894 120.556 101.467 120.556ZM101.467 93.99C95.2461 93.99 90.1851 99.052 90.1851 105.273C90.1851 111.494 95.2471 116.556 101.467 116.556C107.687 116.556 112.75 111.494 112.75 105.273C112.75 99.052 107.688 93.99 101.467 93.99Z" fill="#210080"/>
<path opacity="0.8" d="M20.385 76.815C3.39897 41.024 29.862 23.516 54.421 16.344C101.802 2.50898 113.36 34.262 101.799 62.82C94.914 79.827 113.018 92.061 93.885 107.081C74.752 122.102 63.242 107.592 53.947 98.259C44.652 88.926 27.967 92.788 20.385 76.813V76.815Z" fill="#FF004C"/>
<path d="M98.1559 136.461H80.9419C79.8379 136.461 78.9419 135.565 78.9419 134.461C78.9419 133.357 79.8379 132.461 80.9419 132.461H98.1559C99.2599 132.461 100.156 133.357 100.156 134.461C100.156 135.565 99.2599 136.461 98.1559 136.461Z" fill="#210080"/>
<path d="M126.947 32.704H52.1521C49.8691 32.704 48.0101 34.562 48.0101 36.847V50.044H26.7861C24.5021 50.044 22.6431 51.902 22.6431 54.186V124.556C22.6431 125.664 23.0751 126.705 23.8601 127.488C24.6421 128.268 25.6801 128.698 26.7851 128.698H26.7961L48.0101 128.649V142.12C48.0101 144.403 49.8681 146.262 52.1521 146.262H126.948C129.231 146.262 131.09 144.404 131.09 142.12V36.846C131.09 34.562 129.232 32.703 126.948 32.703L126.947 32.704ZM26.7861 124.697C26.7781 124.702 26.7281 124.699 26.6851 124.656C26.6431 124.614 26.6431 124.57 26.6431 124.555V54.185C26.6431 54.107 26.7061 54.043 26.7861 54.043H72.2321C72.3101 54.043 72.3741 54.106 72.3741 54.185V124.45C72.3741 124.529 72.3281 124.569 72.2321 124.592L26.7861 124.697ZM127.089 142.119C127.089 142.197 127.026 142.261 126.947 142.261H52.1521C52.0741 142.261 52.0101 142.198 52.0101 142.119V128.639L72.2401 128.592C74.5191 128.588 76.3741 126.731 76.3741 124.45V54.185C76.3741 51.902 74.5161 50.043 72.2321 50.043H52.0091V36.846C52.0091 36.767 52.0721 36.703 52.1511 36.703H126.947C127.025 36.703 127.089 36.766 127.089 36.846V142.118V142.119Z" fill="#210080"/>
<path opacity="0.8" d="M119.844 69.384C126.033 60.355 135.704 58.617 141.178 63.987C149.822 72.466 145.157 83.466 137.82 88.546C130.456 93.646 120.269 94.312 114.703 88.766C109.138 83.219 114.032 77.861 119.844 69.384Z" fill="#7427F3"/>
<path d="M55.247 119.03H43.77C42.666 119.03 41.77 118.134 41.77 117.03C41.77 115.926 42.666 115.03 43.77 115.03H55.247C56.351 115.03 57.247 115.926 57.247 117.03C57.247 118.134 56.351 119.03 55.247 119.03Z" fill="#210080"/>
</svg>
