<svg width="160" height="160" viewBox="0 0 160 160" fill="none" xmlns="http://www.w3.org/2000/svg">
<path d="M44.9566 133.618C16.4012 110.435 35.9398 73.6003 65.2207 71.1092C82.6572 69.6255 102.285 83.4229 109.625 102.63C123.466 138.845 73.5131 156.802 44.9577 133.618H44.9566Z" fill="#8E50F3"/>
<path d="M31.976 43.35C37.248 39.216 43.487 38.222 47.04 43.35C51.202 49.358 51.763 54.944 47.04 58.414C42.299 61.897 36.498 62.177 31.976 58.414C26.677 54.005 26.673 47.509 31.976 43.35Z" fill="#FD316E"/>
<path d="M117.789 60.45C121.768 57.329 126.479 56.579 129.161 60.45C132.303 64.985 132.726 69.202 129.161 71.822C125.582 74.452 121.203 74.662 117.789 71.822C113.789 68.494 113.785 63.59 117.789 60.45Z" fill="#FDA431"/>
<path d="M80.3069 31.543C79.5489 30.711 78.1079 30.711 77.3499 31.543C75.7929 33.253 39.2339 73.656 39.2339 94.948C39.2339 116.781 56.9959 134.543 78.8289 134.543C100.662 134.543 118.424 116.781 118.424 94.948C118.424 73.656 81.8629 33.253 80.3069 31.543ZM43.2339 94.948C43.2339 86.305 50.2629 73.682 58.1979 62.18C61.4259 65.652 68.8339 73.751 76.1849 82.683C74.4879 84.628 71.1739 88.54 67.8119 93.162C61.3219 102.083 58.0309 109.009 58.0309 113.746C58.0309 118.574 59.6989 123.012 62.4699 126.545C51.0539 120.61 43.2339 108.679 43.2339 94.948ZM95.6259 113.746C95.6259 123.008 88.0909 130.543 78.8289 130.543C69.5669 130.543 62.0309 123.008 62.0309 113.746C62.0309 106.583 72.9409 92.521 78.7419 85.831C93.3539 104.039 95.6259 111.118 95.6259 113.746ZM95.1869 126.546C97.9579 123.013 99.6259 118.575 99.6259 113.746C99.6259 107.966 93.3639 97.461 80.5359 81.692C80.4379 81.529 80.3239 81.373 80.1759 81.238C80.1689 81.232 80.1609 81.228 80.1539 81.222C79.8809 80.887 79.6219 80.564 79.3429 80.225C71.4329 70.606 63.4409 61.933 60.5519 58.839C67.9839 48.475 75.6779 39.489 78.8309 35.9C81.8369 39.318 88.9729 47.633 96.0309 57.338C108.064 73.884 114.425 86.89 114.425 94.948C114.425 108.679 106.604 120.611 95.1879 126.546H95.1869Z" fill="#210080"/>
<path d="M109.344 48.779C100.583 48.779 93.4551 41.651 93.4551 32.889C93.4551 24.127 100.583 17 109.344 17C118.105 17 125.234 24.128 125.234 32.89C125.234 41.652 118.106 48.78 109.344 48.78V48.779ZM109.344 21C102.788 21 97.4551 26.334 97.4551 32.89C97.4551 39.446 102.788 44.78 109.344 44.78C115.9 44.78 121.234 39.446 121.234 32.89C121.234 26.334 115.9 21 109.344 21Z" fill="#210080"/>
</svg>
