<svg width="160" height="160" viewBox="0 0 160 160" fill="none" xmlns="http://www.w3.org/2000/svg">
<path d="M123.682 84.8661C133.791 77.6921 144.748 79.6275 148.465 87.4744C154.334 99.8663 145.069 109.731 135.291 112.261C125.468 114.8 114.383 111.525 110.638 103.453C106.892 95.382 114.19 91.5986 123.682 84.8661Z" fill="#FF004C"/>
<path opacity="0.8" d="M12.8483 76.6385C6.77785 32.1882 41.3381 22.3574 70.3018 23.0316C126.182 24.3315 127.781 62.5635 105.516 89.4269C92.2579 105.424 107.607 124.836 81.8097 134.488C56.0122 144.141 48.5606 124.545 41.7262 111.283C34.8918 98.022 15.5634 96.4784 12.8483 76.6385Z" fill="#FF9000"/>
<path d="M144.742 121.813H131.888V33.0624H144.742C145.385 33.0624 146.002 32.8068 146.457 32.352C146.912 31.8972 147.167 31.2803 147.167 30.6371C147.167 29.9939 146.912 29.3771 146.457 28.9222C146.002 28.4674 145.385 28.2119 144.742 28.2119H114.175C113.532 28.2119 112.915 28.4674 112.46 28.9222C112.005 29.3771 111.75 29.9939 111.75 30.6371C111.75 31.2803 112.005 31.8972 112.46 32.352C112.915 32.8068 113.532 33.0624 114.175 33.0624H127.029V121.813H114.175C113.532 121.813 112.915 122.068 112.46 122.523C112.005 122.978 111.75 123.595 111.75 124.238C111.75 124.881 112.005 125.498 112.46 125.953C112.915 126.408 113.532 126.663 114.175 126.663H144.742C145.385 126.663 146.002 126.408 146.457 125.953C146.912 125.498 147.167 124.881 147.167 124.238C147.167 123.595 146.912 122.978 146.457 122.523C146.002 122.068 145.385 121.813 144.742 121.813Z" fill="#210080"/>
<path d="M34.1423 71.4472H47.5831C48.2263 71.4472 48.8433 71.1916 49.2982 70.7368C49.753 70.282 50.0084 69.6651 50.0084 69.0219V63.0387H56.9434V95.2003H50.9605C50.3173 95.2003 49.7003 95.4557 49.2455 95.9105C48.7906 96.3653 48.5352 96.9823 48.5352 97.6255V111.066C48.5352 111.71 48.7906 112.326 49.2455 112.781C49.7003 113.236 50.3173 113.492 50.9605 113.492H84.5806C85.2238 113.492 85.8408 113.236 86.2956 112.781C86.7504 112.326 87.0059 111.71 87.0059 111.066V97.6255C87.0059 96.9823 86.7504 96.3653 86.2956 95.9105C85.8408 95.4557 85.2238 95.2003 84.5806 95.2003H78.5988V63.0387H85.5339V69.0219C85.5339 69.6651 85.7893 70.282 86.2441 70.7368C86.6989 71.1916 87.3159 71.4472 87.9591 71.4472H101.4C102.043 71.4472 102.66 71.1916 103.115 70.7368C103.57 70.282 103.825 69.6651 103.825 69.0219L103.804 43.81C103.804 43.1668 103.549 42.55 103.094 42.0951C102.639 41.6403 102.022 41.3848 101.379 41.3848H34.163C33.5198 41.3848 32.9028 41.6403 32.448 42.0951C31.9932 42.55 31.7378 43.1668 31.7378 43.81L31.717 69.0219C31.717 69.6651 31.9727 70.282 32.4276 70.7368C32.8824 71.1916 33.4991 71.4472 34.1423 71.4472ZM36.5859 46.2353H98.9563L98.9723 66.5966H90.3832V60.6134C90.3832 59.9702 90.1275 59.3534 89.6727 58.8985C89.2179 58.4437 88.6012 58.1881 87.958 58.1881H76.1724C75.5292 58.1881 74.9122 58.4437 74.4573 58.8985C74.0025 59.3534 73.7471 59.9702 73.7471 60.6134V97.6255C73.7471 98.2687 74.0025 98.8856 74.4573 99.3404C74.9122 99.7952 75.5292 100.051 76.1724 100.051H82.1541V108.641H68.0768C67.8692 108.613 67.6586 108.613 67.451 108.641H53.3846V100.051H59.3675C60.0107 100.051 60.6277 99.7952 61.0826 99.3404C61.5374 98.8856 61.7928 98.2687 61.7928 97.6255V60.6134C61.7928 59.9702 61.5374 59.3534 61.0826 58.8985C60.6277 58.4437 60.0107 58.1881 59.3675 58.1881H47.5819C46.9387 58.1881 46.322 58.4437 45.8672 58.8985C45.4124 59.3534 45.1567 59.9702 45.1567 60.6134V66.5966H36.5688L36.5859 46.2353Z" fill="#210080"/>
<path d="M102.267 121.813H26.6955C26.0523 121.813 25.4353 122.068 24.9805 122.523C24.5257 122.978 24.2703 123.595 24.2703 124.238C24.2703 124.881 24.5257 125.498 24.9805 125.953C25.4353 126.408 26.0523 126.663 26.6955 126.663H102.267C102.91 126.663 103.527 126.408 103.982 125.953C104.437 125.498 104.692 124.881 104.692 124.238C104.692 123.595 104.437 122.978 103.982 122.523C103.527 122.068 102.91 121.813 102.267 121.813Z" fill="#210080"/>
<path opacity="0.8" d="M21.8255 111.229C29.8786 111.441 36.422 115.304 35.7817 122.779C35.0323 131.537 31.2684 137.143 24.2315 136.737C17.1691 136.329 11.5801 132.139 10.2753 125.186C8.74614 117.039 13.7239 111.015 21.8255 111.229Z" fill="#7427F3"/>
</svg>
