<svg width="160" height="160" viewBox="0 0 160 160" fill="none" xmlns="http://www.w3.org/2000/svg">
<path opacity="0.8" d="M46.251 96.2209C40.565 53.0919 79.963 31.7599 103.489 50.6459C117.499 61.8919 134.052 45.358 139.753 64.088C145.454 82.818 122.846 79.466 115.382 103.333C101.306 148.337 51.936 139.35 46.251 96.2209Z" fill="#FF004C"/>
<path opacity="0.8" d="M65.6021 17.941C71.5681 13.264 78.6283 12.141 82.6493 17.941C87.3593 24.741 87.9933 31.0609 82.6493 34.9879C77.2843 38.9289 70.7201 39.2459 65.6021 34.9879C59.6061 29.9989 59.6011 22.6469 65.6021 17.941Z" fill="#7427F3"/>
<path opacity="0.8" d="M126.752 100.858C131.252 97.3259 136.585 96.4769 139.62 100.858C143.176 105.99 143.655 110.758 139.62 113.726C135.585 116.694 130.615 116.94 126.752 113.726C122.226 109.96 122.222 104.41 126.752 100.858Z" fill="#FF9000"/>
<path d="M130.739 28.4941C130.539 27.5883 130.162 26.7312 129.628 25.9725C129.095 25.2137 128.416 24.5685 127.631 24.074L116.549 17.042C115.766 16.5453 114.893 16.2076 113.98 16.0482C113.067 15.8888 112.131 15.9107 111.226 16.113C110.322 16.3152 109.466 16.6938 108.707 17.2269C107.949 17.76 107.303 18.4372 106.806 19.22L72.1559 73.8281C71.9734 74.1145 71.8675 74.4429 71.8481 74.782L70.5031 97.6821C66.4104 99.7016 62.1212 101.296 57.703 102.44C57.221 100.235 56.2983 98.1501 54.9904 96.3105C53.6825 94.4709 52.0163 92.9147 50.092 91.735C44.929 88.551 39.5611 89.111 37.0351 93.096C35.9608 94.6232 35.4378 96.4703 35.5519 98.334C35.666 100.198 36.4104 101.967 37.663 103.352C40.413 106.411 45.8259 108.336 53.9989 107.226C53.7122 109.566 52.9174 111.816 51.6701 113.817C47.0701 121.495 38.2431 121.471 31.5441 118.043C24.0441 114.207 18.0021 105.36 22.4511 95.0041C22.5574 94.7624 22.6147 94.5019 22.6198 94.2379C22.6249 93.9738 22.5777 93.7114 22.4809 93.4658C22.3841 93.2201 22.2397 92.9961 22.0558 92.8066C21.872 92.617 21.6522 92.4658 21.4096 92.3615C21.167 92.2573 20.9063 92.2021 20.6423 92.1992C20.3782 92.1963 20.1161 92.2457 19.8713 92.3445C19.6264 92.4434 19.4035 92.5898 19.2155 92.7752C19.0275 92.9607 18.8782 93.1815 18.776 93.425C14.947 102.34 16.7391 114.961 29.7221 121.603C32.9745 123.282 36.5751 124.175 40.235 124.21C43.2335 124.286 46.1968 123.552 48.8129 122.085C51.429 120.618 53.6011 118.472 55.1 115.874C56.8677 113.043 57.8837 109.808 58.0519 106.474C72.2339 102.218 94.424 89.1091 94.424 89.1091C94.7225 88.9467 94.9747 88.7109 95.1569 88.424L129.807 33.8171C130.307 33.0356 130.646 32.1627 130.806 31.249C130.966 30.3352 130.943 29.3989 130.739 28.4941ZM40.6391 100.679C39.2501 99.135 39.1709 97.2041 40.4159 95.2391C40.7497 94.7331 41.2112 94.3241 41.7536 94.0535C42.296 93.783 42.9001 93.6604 43.505 93.6981C45.1033 93.7725 46.653 94.2709 47.995 95.142C49.4525 96.0298 50.7168 97.2012 51.7131 98.5867C52.7093 99.9723 53.4174 101.544 53.7951 103.208C46.5221 104.246 42.3041 102.529 40.6401 100.678L40.6391 100.679ZM92.059 85.8431L74.6471 95.324L75.809 75.533L103.097 32.533L119.347 42.8431L92.059 85.8431ZM126.432 31.674L121.49 39.4631L105.24 29.152L110.182 21.363C110.397 21.0236 110.677 20.7301 111.006 20.499C111.335 20.2678 111.706 20.1037 112.098 20.016C112.49 19.9284 112.896 19.9188 113.292 19.988C113.688 20.0571 114.066 20.2036 114.405 20.419L125.488 27.451C126.173 27.886 126.657 28.5753 126.834 29.3671C127.011 30.159 126.867 30.9887 126.432 31.674Z" fill="#210080"/>
<path d="M47.894 78.5129C50.7473 78.5129 53.5366 77.6668 55.9089 76.0816C58.2813 74.4964 60.1303 72.2433 61.2222 69.6073C62.314 66.9712 62.5994 64.0706 62.0427 61.2722C61.486 58.4738 60.1121 55.9033 58.0945 53.8858C56.0769 51.8683 53.5062 50.4945 50.7078 49.9379C47.9093 49.3814 45.0088 49.6673 42.3728 50.7594C39.7368 51.8514 37.484 53.7005 35.8989 56.073C34.3139 58.4454 33.4678 61.2347 33.468 64.088C33.4725 67.9125 34.994 71.579 37.6985 74.2833C40.4029 76.9875 44.0695 78.5087 47.894 78.5129ZM47.894 53.6619C49.9561 53.6619 51.972 54.2734 53.6865 55.419C55.4011 56.5646 56.7372 58.193 57.5264 60.0981C58.3155 62.0032 58.5222 64.0995 58.1199 66.1219C57.7176 68.1444 56.7245 70.0021 55.2664 71.4602C53.8083 72.9183 51.9507 73.9113 49.9282 74.3136C47.9058 74.7158 45.8094 74.5094 43.9043 73.7203C41.9992 72.9312 40.3707 71.5949 39.2251 69.8803C38.0795 68.1658 37.468 66.15 37.468 64.088C37.4712 61.3238 38.5708 58.6738 40.5254 56.7192C42.48 54.7646 45.1299 53.6651 47.894 53.6619Z" fill="#210080"/>
<path d="M121.706 131.114H112.063V118.601C112.061 117.043 111.441 115.549 110.339 114.447C109.237 113.345 107.743 112.725 106.185 112.723H93.675V103.08C93.675 102.55 93.4644 102.041 93.0894 101.666C92.7143 101.291 92.2055 101.08 91.675 101.08C91.1446 101.08 90.6361 101.291 90.261 101.666C89.8859 102.041 89.675 102.55 89.675 103.08V112.723H80.032C79.5015 112.723 78.993 112.934 78.6179 113.309C78.2428 113.684 78.032 114.193 78.032 114.723C78.032 115.253 78.2428 115.762 78.6179 116.137C78.993 116.512 79.5015 116.723 80.032 116.723H89.675V129.236C89.6769 130.794 90.2967 132.288 91.3987 133.39C92.5006 134.492 93.9946 135.112 95.553 135.114H108.067V144.757C108.067 145.287 108.278 145.796 108.653 146.171C109.028 146.546 109.537 146.757 110.067 146.757C110.598 146.757 111.106 146.546 111.481 146.171C111.856 145.796 112.067 145.287 112.067 144.757V135.114H121.71C122.241 135.114 122.749 134.903 123.124 134.528C123.499 134.153 123.71 133.644 123.71 133.114C123.71 132.584 123.499 132.075 123.124 131.7C122.749 131.325 122.241 131.114 121.71 131.114H121.706ZM95.5491 131.114C95.0512 131.113 94.5739 130.915 94.2219 130.563C93.8699 130.211 93.6719 129.734 93.6711 129.236V116.723H106.185C106.683 116.724 107.16 116.922 107.512 117.274C107.864 117.626 108.062 118.103 108.063 118.601V131.114H95.5491Z" fill="#210080"/>
</svg>
