<svg width="160" height="160" viewBox="0 0 160 160" fill="none" xmlns="http://www.w3.org/2000/svg">
<path opacity="0.8" d="M46.9638 59.393C41.1948 70.715 32.8869 76.0081 26.0869 68.6041C19.2869 61.2001 15.5969 54.378 20.9619 46.368C26.3469 38.327 34.2918 34.368 41.8388 37.157C50.6828 40.425 52.0048 49.502 46.9638 59.393Z" fill="#FF004C"/>
<path opacity="0.8" d="M104.985 109.174C62.5629 119.365 45.6269 66.0889 64.7669 46.7169C76.1669 35.1799 93.296 18.7349 119.691 35.7169C155.49 58.7399 143.239 99.985 104.985 109.174Z" fill="#FF9000"/>
<path d="M71.7139 113.846H35.5029C34.9725 113.846 34.4639 114.057 34.0889 114.432C33.7138 114.807 33.5029 115.316 33.5029 115.846V138.478C33.5029 139.008 33.7138 139.517 34.0889 139.892C34.4639 140.267 34.9725 140.478 35.5029 140.478H71.7139C72.2443 140.478 72.7531 140.267 73.1282 139.892C73.5032 139.517 73.7139 139.008 73.7139 138.478V115.846C73.7139 115.316 73.5032 114.807 73.1282 114.432C72.7531 114.057 72.2443 113.846 71.7139 113.846ZM69.7139 136.478H37.5029V117.846H69.7139V136.478Z" fill="#210080"/>
<path d="M122.125 113.846H85.9141C85.3836 113.846 84.8748 114.057 84.4998 114.432C84.1247 114.807 83.9141 115.316 83.9141 115.846V138.478C83.9141 139.008 84.1247 139.517 84.4998 139.892C84.8748 140.267 85.3836 140.478 85.9141 140.478H122.125C122.655 140.478 123.164 140.267 123.539 139.892C123.914 139.517 124.125 139.008 124.125 138.478V115.846C124.125 115.316 123.914 114.807 123.539 114.432C123.164 114.057 122.655 113.846 122.125 113.846ZM120.125 136.478H87.9141V117.846H120.125V136.478Z" fill="#210080"/>
<path d="M122.125 19.0001H35.5029C34.9725 19.0001 34.4639 19.2107 34.0889 19.5858C33.7138 19.9608 33.5029 20.4696 33.5029 21.0001V57.222C33.5029 57.7524 33.7138 58.2611 34.0889 58.6362C34.4639 59.0112 34.9725 59.222 35.5029 59.222H122.125C122.655 59.222 123.164 59.0112 123.539 58.6362C123.914 58.2611 124.125 57.7524 124.125 57.222V21.0001C124.125 20.4696 123.914 19.9608 123.539 19.5858C123.164 19.2107 122.655 19.0001 122.125 19.0001ZM73.6309 39.111L37.5029 54.218V24.004L73.6309 39.111ZM45.469 23.0001H112.159L78.814 36.944L45.469 23.0001ZM78.814 41.278L112.159 55.222H45.469L78.814 41.278ZM83.9971 39.111L120.125 24.004V54.218L83.9971 39.111Z" fill="#210080"/>
<path d="M122.125 98.692H35.5459C35.0155 98.692 34.5069 98.9027 34.1318 99.2778C33.7568 99.6528 33.5459 100.162 33.5459 100.692C33.5459 101.222 33.7568 101.731 34.1318 102.106C34.5069 102.481 35.0155 102.692 35.5459 102.692H122.125C122.655 102.692 123.164 102.481 123.539 102.106C123.914 101.731 124.125 101.222 124.125 100.692C124.125 100.162 123.914 99.6528 123.539 99.2778C123.164 98.9027 122.655 98.692 122.125 98.692Z" fill="#210080"/>
<path d="M122.125 83.97H35.5459C35.0155 83.97 34.5069 84.1808 34.1318 84.5558C33.7568 84.9309 33.5459 85.4396 33.5459 85.97C33.5459 86.5005 33.7568 87.0091 34.1318 87.3842C34.5069 87.7593 35.0155 87.97 35.5459 87.97H122.125C122.655 87.97 123.164 87.7593 123.539 87.3842C123.914 87.0091 124.125 86.5005 124.125 85.97C124.125 85.4396 123.914 84.9309 123.539 84.5558C123.164 84.1808 122.655 83.97 122.125 83.97Z" fill="#210080"/>
<path d="M122.125 69.246H35.5459C35.0155 69.246 34.5069 69.4568 34.1318 69.8318C33.7568 70.2069 33.5459 70.7156 33.5459 71.246C33.5459 71.7765 33.7568 72.2851 34.1318 72.6602C34.5069 73.0353 35.0155 73.246 35.5459 73.246H122.125C122.655 73.246 123.164 73.0353 123.539 72.6602C123.914 72.2851 124.125 71.7765 124.125 71.246C124.125 70.7156 123.914 70.2069 123.539 69.8318C123.164 69.4568 122.655 69.246 122.125 69.246Z" fill="#210080"/>
<path opacity="0.8" d="M44.639 130.176C28.886 136.381 15.809 123.145 18.308 107.654C22.959 78.821 44.159 72.2431 56.128 97.8181C63.42 113.399 60.486 123.934 44.639 130.176Z" fill="#7427F3"/>
</svg>
