<svg width="160" height="160" viewBox="0 0 160 160" fill="none" xmlns="http://www.w3.org/2000/svg">
<path opacity="0.8" d="M37.2761 57.288C78.1021 37.154 103.766 83.97 87.919 107.554C78.481 121.598 94.8301 132.502 74.7191 142.432C54.6081 152.362 55.999 131.563 30.033 123.713C-12.482 110.86 -6.80593 79.027 37.2761 57.288Z" fill="#7427F3"/>
<path opacity="0.8" d="M97.7002 25.9769C109.459 16.7269 129.04 18.6619 127 41.4869C124.7 67.1939 114.105 78.022 97.4822 59.412C87.3572 48.073 85.8672 35.2829 97.7002 25.9769Z" fill="#FF004C"/>
<path d="M121.267 115.381L85.3991 100.204C85.0324 100.049 84.6278 100.007 84.2371 100.083C83.8464 100.159 83.4873 100.35 83.2058 100.632C82.9244 100.913 82.7334 101.272 82.6571 101.663C82.5809 102.054 82.623 102.458 82.778 102.825L97.955 138.694C98.2421 139.376 98.7245 139.959 99.3415 140.368C99.9585 140.777 100.683 140.995 101.423 140.994C101.547 140.994 101.671 140.988 101.796 140.977C102.597 140.901 103.352 140.57 103.951 140.034C104.55 139.497 104.961 138.782 105.123 137.994L107.309 127.562L119.551 139.804C119.928 140.168 120.433 140.37 120.958 140.365C121.482 140.361 121.984 140.15 122.355 139.78C122.725 139.409 122.936 138.907 122.94 138.383C122.945 137.858 122.743 137.353 122.379 136.976L110.137 124.734L120.569 122.548C121.356 122.384 122.07 121.973 122.607 121.374C123.144 120.776 123.475 120.021 123.554 119.221C123.632 118.421 123.452 117.617 123.041 116.926C122.63 116.235 122.009 115.693 121.269 115.38L121.267 115.381ZM105.731 121.572H105.723H105.699C105.69 121.576 105.68 121.58 105.67 121.583C105.513 121.62 105.361 121.675 105.218 121.749C105.179 121.768 105.142 121.787 105.105 121.808C104.96 121.891 104.825 121.992 104.705 122.108L104.694 122.119C104.578 122.239 104.477 122.374 104.394 122.519C104.373 122.556 104.354 122.593 104.335 122.632C104.261 122.775 104.206 122.927 104.169 123.084C104.166 123.094 104.162 123.104 104.158 123.113V123.137V123.145L101.369 136.455L88.397 105.799L119.053 118.77L105.731 121.572Z" fill="#210080"/>
<path d="M71.489 50.633H115.574C116.104 50.633 116.613 50.4223 116.988 50.0472C117.363 49.6721 117.574 49.1634 117.574 48.633C117.574 48.1026 117.363 47.5939 116.988 47.2188C116.613 46.8437 116.104 46.633 115.574 46.633H71.489C70.9586 46.633 70.4499 46.8437 70.0748 47.2188C69.6998 47.5939 69.489 48.1026 69.489 48.633C69.489 49.1634 69.6998 49.6721 70.0748 50.0472C70.4499 50.4223 70.9586 50.633 71.489 50.633Z" fill="#210080"/>
<path d="M71.489 63.433H115.574C116.104 63.433 116.613 63.2223 116.988 62.8472C117.363 62.4722 117.574 61.9635 117.574 61.433C117.574 60.9026 117.363 60.3938 116.988 60.0187C116.613 59.6437 116.104 59.433 115.574 59.433H71.489C70.9586 59.433 70.4499 59.6437 70.0748 60.0187C69.6998 60.3938 69.489 60.9026 69.489 61.433C69.489 61.9635 69.6998 62.4722 70.0748 62.8472C70.4499 63.2223 70.9586 63.433 71.489 63.433Z" fill="#210080"/>
<path d="M71.489 76.244H100.389C100.919 76.244 101.428 76.0333 101.803 75.6583C102.178 75.2832 102.389 74.7744 102.389 74.244C102.389 73.7135 102.178 73.2048 101.803 72.8298C101.428 72.4547 100.919 72.244 100.389 72.244H71.489C70.9586 72.244 70.4499 72.4547 70.0748 72.8298C69.6998 73.2048 69.489 73.7135 69.489 74.244C69.489 74.7744 69.6998 75.2832 70.0748 75.6583C70.4499 76.0333 70.9586 76.244 71.489 76.244Z" fill="#210080"/>
<path d="M124.745 92.249C126.548 92.2463 128.276 91.5291 129.55 90.2545C130.825 88.9798 131.542 87.2517 131.545 85.449V37.428C131.542 35.6254 130.825 33.8973 129.55 32.6226C128.276 31.3479 126.548 30.6306 124.745 30.628H62.317C60.5142 30.6301 58.7858 31.3472 57.511 32.622C56.2362 33.8968 55.5191 35.6252 55.517 37.428V76.538H32.667C31.6061 76.538 30.5888 76.9594 29.8386 77.7095C29.0885 78.4597 28.667 79.4772 28.667 80.538V114.955C28.667 116.016 29.0885 117.033 29.8386 117.783C30.5888 118.534 31.6061 118.955 32.667 118.955H67.084C68.1449 118.955 69.1623 118.534 69.9125 117.783C70.6626 117.033 71.084 116.016 71.084 114.955V92.2549L124.745 92.249ZM59.516 37.426C59.516 36.6834 59.811 35.9712 60.3361 35.4461C60.8612 34.921 61.5734 34.626 62.316 34.626H124.744C125.486 34.6274 126.198 34.9228 126.722 35.4476C127.247 35.9724 127.543 36.6838 127.544 37.426V85.447C127.543 86.1892 127.247 86.9007 126.722 87.4255C126.198 87.9503 125.486 88.2457 124.744 88.247H71.085V80.533C71.085 79.4722 70.6636 78.4547 69.9135 77.7045C69.1633 76.9544 68.1458 76.533 67.085 76.533H59.515L59.516 37.426ZM64.257 80.5359L49.877 94.916L35.4969 80.5359H64.257ZM47.049 97.7451L32.667 112.124V83.364L47.049 97.7451ZM49.877 100.573L64.2579 114.953H35.496L49.877 100.573ZM52.705 97.7451L67.0859 83.363V112.128L52.705 97.7451Z" fill="#210080"/>
<path d="M157.589 77.2909L144.502 73.256C144.226 73.171 143.935 73.1467 143.649 73.1847C143.363 73.2228 143.089 73.3223 142.845 73.4764C142.601 73.6305 142.393 73.8355 142.236 74.0774C142.079 74.3194 141.976 74.5925 141.934 74.878L139.822 89.34C139.745 89.8649 139.88 90.3987 140.197 90.824C140.514 91.2494 140.987 91.5313 141.512 91.608C141.609 91.6219 141.706 91.6289 141.804 91.629C142.284 91.628 142.747 91.4548 143.109 91.1407C143.472 90.8266 143.71 90.3927 143.779 89.918L145.097 80.899C147.713 83.8495 149.077 87.7032 148.899 91.6425C148.72 95.5818 147.015 99.2966 144.143 101.999C141.272 104.702 137.46 106.179 133.517 106.118C129.574 106.057 125.811 104.462 123.024 101.672C122.647 101.308 122.142 101.106 121.617 101.111C121.093 101.115 120.591 101.326 120.22 101.696C119.849 102.067 119.639 102.569 119.635 103.093C119.63 103.618 119.832 104.123 120.196 104.5C123.685 107.992 128.386 110.003 133.321 110.114C138.256 110.226 143.043 108.429 146.686 105.098C150.329 101.768 152.547 97.1603 152.877 92.2354C153.207 87.3105 151.625 82.4481 148.459 78.6609L156.411 81.113C156.915 81.2589 157.456 81.2011 157.917 80.952C158.379 80.7028 158.724 80.2823 158.879 79.7811C159.033 79.2798 158.985 78.7379 158.743 78.2721C158.502 77.8064 158.088 77.4539 157.589 77.2909Z" fill="#210080"/>
<path d="M29.8481 46.815L42.934 50.851C43.2098 50.936 43.5007 50.9604 43.7867 50.9223C44.0727 50.8843 44.3472 50.7848 44.5911 50.6307C44.8351 50.4766 45.0428 50.2716 45.2 50.0296C45.3573 49.7877 45.4603 49.5145 45.502 49.229L47.6151 34.767C47.6595 34.5043 47.651 34.2354 47.59 33.976C47.5291 33.7167 47.4169 33.4721 47.2601 33.2567C47.1033 33.0413 46.9051 32.8594 46.6771 32.7216C46.449 32.5839 46.1957 32.493 45.9321 32.4545C45.6685 32.416 45.3999 32.4306 45.1419 32.4974C44.884 32.5641 44.642 32.6818 44.4301 32.8433C44.2183 33.0049 44.0409 33.2072 43.9083 33.4383C43.7757 33.6694 43.6906 33.9246 43.658 34.189L42.34 43.207C39.724 40.2564 38.3603 36.4028 38.5384 32.4636C38.7165 28.5243 40.4223 24.8094 43.2939 22.1069C46.1655 19.4044 49.9771 17.927 53.9199 17.9881C57.8627 18.0492 61.6265 19.6439 64.413 22.434C64.7903 22.7983 65.2955 22.9999 65.8199 22.9953C66.3443 22.9908 66.8459 22.7804 67.2168 22.4096C67.5876 22.0388 67.7979 21.5372 67.8025 21.0128C67.807 20.4884 67.6054 19.9832 67.2411 19.606C63.7522 16.1144 59.0507 14.1034 54.116 13.9919C49.1814 13.8804 44.3939 15.677 40.7509 19.0075C37.108 22.338 34.8904 26.9457 34.5601 31.8706C34.2299 36.7954 35.8125 41.6579 38.9781 45.445L31.0271 42.992C30.776 42.9146 30.5122 42.8874 30.2507 42.9119C29.9892 42.9365 29.735 43.0123 29.5028 43.1351C29.2705 43.2578 29.0648 43.4251 28.8972 43.6274C28.7296 43.8297 28.6035 44.063 28.5261 44.314C28.4487 44.5651 28.4215 44.8289 28.446 45.0904C28.4705 45.3519 28.5464 45.6061 28.6691 45.8383C28.7919 46.0706 28.9592 46.2763 29.1615 46.4439C29.3637 46.6115 29.5971 46.7376 29.8481 46.815Z" fill="#210080"/>
<path opacity="0.8" d="M110.844 90.777C112.854 79.73 118.544 73.1399 126.179 77.6769C133.814 82.2139 138.669 87.057 136.161 95.199C133.643 103.372 127.923 108.74 120.826 108.299C112.511 107.778 109.088 100.433 110.844 90.777Z" fill="#FF9000"/>
</svg>
