<svg width="180" height="180" viewBox="0 0 180 180" fill="none" xmlns="http://www.w3.org/2000/svg">
<path d="M63.0312 135C60.2216 135 57.475 135.833 55.1388 137.394C52.8026 138.954 50.9817 141.173 49.9064 143.768C48.831 146.364 48.5495 149.22 49.0975 151.976C49.6455 154.732 50.9983 157.263 52.9849 159.25C54.9715 161.236 57.5027 162.59 60.2583 163.138C63.0139 163.686 65.8702 163.405 68.466 162.33C71.0618 161.254 73.2804 159.434 74.8414 157.098C76.4023 154.762 77.2354 152.015 77.2354 149.205C77.2313 145.439 75.7334 141.829 73.0705 139.166C70.4076 136.503 66.7972 135.004 63.0312 135ZM63.0312 158.911C61.1116 158.911 59.235 158.342 57.6388 157.276C56.0427 156.209 54.7985 154.694 54.0638 152.92C53.329 151.147 53.1366 149.195 53.511 147.313C53.8854 145.43 54.8097 143.701 56.1669 142.343C57.5242 140.986 59.2535 140.061 61.1362 139.687C63.0189 139.312 64.9704 139.504 66.7439 140.239C68.5174 140.973 70.0332 142.217 71.0997 143.813C72.1662 145.409 72.7354 147.286 72.7354 149.205C72.7325 151.778 71.7092 154.245 69.89 156.064C68.0707 157.884 65.6041 158.908 63.0312 158.911Z" fill="#210080"/>
<path opacity="0.8" d="M136.255 130.72C111.564 171.058 75.5896 158.268 52.3932 138.398C7.64073 100.065 33.0432 65.5514 69.1332 58.4706C90.6275 54.2541 91.0415 28.1732 118.543 37.495C146.045 46.8167 139.052 67.7934 135.789 83.1756C132.527 98.5577 147.277 112.716 136.255 130.72Z" fill="#FF004C"/>
<path d="M119.697 128.359C123.634 123.406 125.969 117.371 126.392 111.058C126.814 104.745 125.304 98.4525 122.062 93.0188C118.82 87.585 114 83.2675 108.244 80.6407C102.488 78.014 96.068 77.2025 89.8391 78.3145V65.9767H144.028C145.222 65.9767 146.366 65.5026 147.21 64.6587C148.054 63.8147 148.528 62.6702 148.528 61.4767V22.5C148.528 21.3065 148.054 20.1619 147.21 19.3179C146.366 18.474 145.222 18 144.028 18H73.9968C72.8033 18 71.6588 18.474 70.8149 19.3179C69.971 20.1619 69.4968 21.3065 69.4968 22.5V42.9244H44.1135C41.8704 42.9268 39.7198 43.8188 38.1336 45.4048C36.5474 46.9909 35.655 49.1412 35.6523 51.3843V94.861C35.655 97.1041 36.5474 99.2546 38.1336 100.841C39.7198 102.427 41.8704 103.319 44.1135 103.321H64.6313C63.4268 109.783 64.297 116.46 67.1176 122.398C69.9382 128.335 74.5645 133.228 80.3346 136.377C86.1046 139.525 92.7227 140.768 99.2419 139.927C105.761 139.087 111.847 136.205 116.63 131.696L140.538 159.542C140.731 159.766 140.966 159.95 141.229 160.084C141.493 160.217 141.78 160.297 142.075 160.32C142.37 160.342 142.666 160.306 142.946 160.214C143.227 160.122 143.487 159.976 143.711 159.783C143.936 159.591 144.12 159.356 144.253 159.092C144.387 158.829 144.467 158.541 144.489 158.247C144.512 157.952 144.476 157.656 144.384 157.375C144.292 157.094 144.145 156.834 143.953 156.61L119.697 128.359ZM85.3391 61.4767H73.9968V47.4244H81.3802C82.4301 47.4256 83.4367 47.8431 84.1791 48.5855C84.9215 49.3279 85.339 50.3344 85.3402 51.3843L85.3391 61.4767ZM89.8391 55.1114L109.012 44.5567L139.75 61.4767H89.8391V55.1114ZM144.028 25.2787V58.6912L113.679 41.9849L144.028 25.2787ZM109.012 39.4177L78.2764 22.4977H139.748L109.012 39.4177ZM73.9935 25.2787L104.347 41.9873L89.7221 50.0378C89.4013 48.055 88.3861 46.2508 86.8578 44.9475C85.3295 43.6443 83.3876 42.9267 81.3791 42.9232H73.9957L73.9935 25.2787ZM44.1135 98.82C43.0634 98.8191 42.0565 98.4017 41.3139 97.6593C40.5712 96.9168 40.1535 95.91 40.1523 94.8599V51.3832C40.1535 50.3331 40.5712 49.3264 41.3139 48.584C42.0565 47.8416 43.0634 47.4241 44.1135 47.4232H69.4968V61.4756C69.4968 62.6691 69.971 63.8136 70.8149 64.6576C71.6588 65.5015 72.8033 65.9756 73.9968 65.9756H85.3391V79.4632C80.8276 80.9925 76.7246 83.5309 73.3422 86.8852C69.9598 90.2396 67.3872 94.3214 65.8204 98.82H44.1135ZM95.2797 135.683C89.1768 135.694 83.254 133.615 78.4961 129.793C73.7382 125.971 70.4317 120.636 69.1264 114.674C67.8212 108.713 68.5958 102.484 71.3214 97.0231C74.047 91.5627 78.5594 87.1997 84.1085 84.6594C89.6576 82.1191 95.9089 81.5545 101.823 83.0597C107.738 84.5648 112.959 88.0488 116.619 92.9327C120.278 97.8165 122.156 103.806 121.94 109.905C121.724 116.004 119.427 121.845 115.431 126.458C115.359 126.502 115.29 126.55 115.224 126.602C115.007 126.789 114.828 127.016 114.697 127.27C112.208 129.926 109.201 132.044 105.861 133.491C102.521 134.938 98.9197 135.685 95.2797 135.684V135.683Z" fill="#210080"/>
<path d="M168.285 67.1286C168.065 66.9313 167.809 66.7794 167.53 66.6813C167.251 66.5833 166.955 66.5411 166.66 66.5573C166.365 66.5735 166.076 66.6477 165.81 66.7757C165.543 66.9036 165.304 67.0828 165.107 67.303L143.011 91.9406L134.253 81.3317C133.871 80.8787 133.325 80.5949 132.735 80.5417C132.145 80.4885 131.557 80.6703 131.1 81.0478C130.644 81.4252 130.354 81.9676 130.295 82.5573C130.235 83.147 130.411 83.7362 130.784 84.1971L141.206 96.8219C141.412 97.0714 141.669 97.2735 141.96 97.4145C142.251 97.5554 142.57 97.6318 142.893 97.6386H142.939C143.255 97.6386 143.568 97.572 143.856 97.4431C144.145 97.3142 144.403 97.126 144.614 96.8906L168.458 70.3068C168.655 70.0869 168.807 69.8302 168.905 69.5514C169.004 69.2726 169.046 68.9772 169.03 68.6821C169.014 68.387 168.94 68.0979 168.812 67.8313C168.684 67.5648 168.505 67.326 168.285 67.1286Z" fill="#210080"/>
<path opacity="0.8" d="M45.5995 58.8634C27.8796 67.8702 12.4986 66.9162 10.7143 51.2922C8.93006 35.6682 10.5467 23.6419 24.7059 18.4512C38.9203 13.2402 52.6127 15.5464 59.5911 26.0235C67.7665 38.2984 61.0806 50.9952 45.5995 58.8634Z" fill="#FF9000"/>
<path opacity="0.8" d="M28.194 139.365C18.4571 138.186 10.9685 132.755 12.5988 123.767C14.504 113.234 19.7118 106.87 28.194 108.167C36.7088 109.469 43.0041 115.187 43.7907 123.767C44.712 133.818 37.9907 140.55 28.194 139.365Z" fill="#7427F3"/>
</svg>
